<?xml version="1.0" encoding="UTF-8" standalone="no"?>
<svg width="223px" height="24px" viewBox="0 0 223 24" version="1.1" xmlns="http://www.w3.org/2000/svg" xmlns:xlink="http://www.w3.org/1999/xlink">
    <!-- Generator: Sketch 43.2 (39069) - http://www.bohemiancoding.com/sketch -->
    <title>CUBE CENTRAL</title>
    <desc>Created with Sketch.</desc>
    <defs></defs>
    <g id="Page-1" stroke="none" stroke-width="1" fill="none" fill-rule="evenodd">
        <g id="Desktop-HD" transform="translate(-569.000000, -394.000000)" fill="#E66DFF">
            <g id="Group" transform="translate(554.364774, 386.661022)">
                <g id="Group-2">
                    <path d="M33.6395,10.315 C31.7175,8.827 29.2995,7.928 26.6955,7.928 C20.4955,7.928 15.4425,12.981 15.4425,19.181 C15.4425,25.381 20.4955,30.434 26.6955,30.434 C29.4235,30.434 31.9345,29.442 33.8875,27.83 L31.0975,24.637 C27.0055,27.737 20.2785,25.288 20.2785,19.181 C20.2785,13.353 26.6335,10.811 30.8495,13.539 L33.6395,10.315 Z M53.0145,21.971 L53.0145,8.269 L48.6745,8.269 L48.6745,22.002 L48.7055,22.002 C48.6745,23.087 48.2715,24.079 47.4965,24.854 C46.7215,25.629 45.7295,26.032 44.6445,26.032 C43.5595,26.032 42.5365,25.629 41.7615,24.854 C40.9865,24.079 40.5525,23.056 40.5525,21.971 L40.5525,8.269 L36.2125,8.269 L36.2125,22.002 C36.2435,26.621 39.9945,30.372 44.6445,30.372 C49.2635,30.372 53.0455,26.621 53.0455,21.971 L53.0145,21.971 Z M56.3005,8.3 L62.2215,8.3 C65.7245,8.3 68.5765,11.152 68.5765,14.655 C68.5765,15.988 68.1735,17.197 67.4605,18.22 C69.0415,19.429 70.0335,21.32 70.0335,23.428 C70.0335,27.086 67.0885,30 63.4615,30 L56.3005,30 L56.3005,8.3 Z M60.1445,16.887 L62.0355,16.887 C63.2445,16.887 64.5465,15.895 64.5465,14.376 C64.5465,12.857 63.2445,11.927 62.0355,11.927 L60.1445,11.927 L60.1445,16.887 Z M60.2375,26.311 L63.3995,26.311 C64.8565,26.311 66.0655,25.164 66.0655,23.707 C66.0655,22.25 64.8565,21.072 63.3995,21.072 L60.2375,21.072 L60.2375,26.311 Z M88.2305,8.269 L73.7535,8.269 L73.7535,30 L88.1375,30 L88.1375,25.66 L78.0935,25.66 L78.0935,20.948 L86.4635,20.948 L86.4635,16.608 L78.0935,16.608 L78.0935,12.609 L88.2305,12.609 L88.2305,8.269 Z M119.7575,10.315 C117.8355,8.827 115.4175,7.928 112.8135,7.928 C106.6135,7.928 101.5605,12.981 101.5605,19.181 C101.5605,25.381 106.6135,30.434 112.8135,30.434 C115.5415,30.434 118.0525,29.442 120.0055,27.83 L117.2155,24.637 C113.1235,27.737 106.3965,25.288 106.3965,19.181 C106.3965,13.353 112.7515,10.811 116.9675,13.539 L119.7575,10.315 Z M138.5125,8.269 L124.0355,8.269 L124.0355,30 L138.4195,30 L138.4195,25.66 L128.3755,25.66 L128.3755,20.948 L136.7455,20.948 L136.7455,16.608 L128.3755,16.608 L128.3755,12.609 L138.5125,12.609 L138.5125,8.269 Z M159.0965,30 L146.8825,17.321 L146.8825,30 L142.5425,30 L142.5425,8.269 L143.9065,8.269 L155.9035,20.421 L155.9035,8.269 L160.2435,8.269 L160.2435,30 L159.0965,30 Z M163.8085,8.269 L163.8085,12.609 L169.8535,12.609 L169.8535,30 L174.1935,30 L174.1935,12.609 L180.2075,12.609 L180.2075,8.269 L163.8085,8.269 Z M183.4625,8.238 L192.0185,8.238 C195.6145,8.238 198.5285,11.183 198.5285,14.779 C198.5285,17.414 196.8235,20.235 194.1265,20.7 L198.6525,30 L194.0335,30 L189.9725,21.289 L189.9725,21.258 L187.8025,16.577 L187.8025,29.969 L183.4625,29.969 L183.4625,8.238 Z M190.1585,12.578 L192.2975,16.918 C193.3515,16.794 194.1885,15.895 194.1885,14.779 C194.1885,13.57 193.2275,12.578 192.0185,12.578 L190.1585,12.578 Z M212.6955,8.269 L222.4295,28.853 L222.4295,30 L200.9465,30 L200.9465,28.853 L211.4245,8.269 L212.6955,8.269 Z M207.4255,25.66 L216.1055,25.66 L211.9515,16.794 L207.4255,25.66 Z M229.4665,8.269 L225.1265,8.269 L225.1265,29.969 L237.5575,29.969 L237.5575,25.66 L229.4665,25.66 L229.4665,8.269 Z" id="CUBE-CENTRAL"></path>
                </g>
            </g>
        </g>
    </g>
</svg>