<?xml version="1.0" encoding="UTF-8" standalone="no"?>
<svg width="260px" height="23px" viewBox="0 0 260 23" version="1.1" xmlns="http://www.w3.org/2000/svg" xmlns:xlink="http://www.w3.org/1999/xlink">
    <!-- Generator: Sketch 41 (35326) - http://www.bohemiancoding.com/sketch -->
    <title>Group 2</title>
    <desc>Created with Sketch.</desc>
    <defs></defs>
    <g id="Page-1" stroke="none" stroke-width="1" fill="none" fill-rule="evenodd">
        <g id="iPhone-5/5S/5C-Copy-14" transform="translate(-402.000000, -222.000000)">
            <g id="Group-2" transform="translate(402.000000, 222.000000)">
                <path d="M11.586,0.61 C11.338,0.61 11.152,0.827 11.152,1.075 L11.152,9.166 L6.812,9.166 L6.812,1.075 C6.812,0.827 6.626,0.61 6.347,0.61 L0.55,0.61 C0.333,0.61 0.116,0.827 0.116,1.075 L0.116,21.566 C0.116,21.783 0.333,22 0.55,22 L6.347,22 C6.626,22 6.812,21.783 6.812,21.566 L6.812,14.622 L11.152,14.622 L11.152,21.566 C11.152,21.783 11.338,22 11.586,22 L17.383,22 C17.662,22 17.848,21.783 17.848,21.566 L17.848,1.075 C17.848,0.827 17.662,0.61 17.383,0.61 L11.586,0.61 Z M30.2648289,22.434 C23.6618289,22.434 19.2598289,17.97 19.2598289,11.305 C19.2598289,4.578 23.6618289,0.114 30.2648289,0.114 C36.8678289,0.114 41.2698289,4.578 41.2698289,11.305 C41.2698289,17.97 36.8678289,22.434 30.2648289,22.434 Z M30.2648289,6.376 C27.7228289,6.376 26.0178289,8.36 26.0178289,11.305 C26.0178289,14.25 27.7228289,16.234 30.2648289,16.234 C32.8068289,16.234 34.5118289,14.25 34.5118289,11.305 C34.5118289,8.36 32.8068289,6.376 30.2648289,6.376 Z M60.2896578,0.61 C59.8866578,0.61 59.4216578,0.889 59.2356578,1.23 L54.9576578,13.072 L50.6796578,1.23 C50.4936578,0.889 50.0286578,0.61 49.6256578,0.61 L43.1466578,0.61 C42.8986578,0.61 42.7126578,0.827 42.7126578,1.075 L42.7126578,21.566 C42.7126578,21.783 42.8986578,22 43.1466578,22 L48.8816578,22 C49.1296578,22 49.3466578,21.783 49.3466578,21.566 L49.3466578,12.452 L52.4776578,21.535 C52.5706578,21.783 52.9736578,22 53.2526578,22 L56.6626578,22 C56.9416578,22 57.3446578,21.783 57.4376578,21.535 L60.5686578,12.452 L60.5686578,21.566 C60.5686578,21.783 60.7856578,22 61.0336578,22 L66.7686578,22 C67.0166578,22 67.2026578,21.783 67.2026578,21.566 L67.2026578,1.075 C67.2026578,0.827 67.0166578,0.61 66.7686578,0.61 L60.2896578,0.61 Z M75.3104867,16.42 L75.3104867,13.785 L81.3244867,13.785 C81.6034867,13.785 81.8204867,13.568 81.8514867,13.382 L82.2854867,9.042 C82.3164867,8.856 82.1614867,8.639 81.8824867,8.639 L75.3104867,8.639 L75.3104867,6.19 L83.4014867,6.19 C83.6804867,6.19 83.8974867,6.004 83.8974867,5.725 L83.8974867,1.044 C83.8974867,0.827 83.6804867,0.61 83.4014867,0.61 L69.2964867,0.61 C69.0174867,0.61 68.8624867,0.765 68.8624867,1.044 L68.8624867,21.535 C68.9244867,21.752 69.1414867,22 69.3584867,22 L83.7734867,22 C84.0214867,22 84.2384867,21.783 84.2384867,21.566 L84.2384867,16.823 C84.2384867,16.606 84.0214867,16.42 83.7734867,16.42 L75.3104867,16.42 Z" id="HOME" fill="#3C3C3C"></path>
                <path d="M101.974,8.887 C101.633,8.887 101.447,9.104 101.478,9.414 L101.881,13.692 C101.912,13.909 102.098,14.033 102.377,14.033 L105.229,14.033 L105.229,15.831 C104.888,16.203 104.113,16.42 102.966,16.42 C100.114,16.42 98.192,14.374 98.192,11.274 C98.192,8.236 100.114,6.19 102.966,6.19 C104.516,6.19 106.159,6.593 107.43,7.275 C107.709,7.337 107.926,7.244 108.019,7.027 L109.569,2.47 C109.631,2.284 109.538,2.036 109.29,1.912 C107.492,0.796 105.074,0.114 102.78,0.114 C96.084,0.114 91.62,4.578 91.62,11.274 C91.62,17.97 96.084,22.434 102.78,22.434 C105.756,22.434 108.608,21.504 110.468,19.923 C110.685,19.737 110.84,19.458 110.84,19.179 L110.84,9.321 C110.84,9.104 110.623,8.887 110.375,8.887 L101.974,8.887 Z M123.442829,0.61 C123.163829,0.61 122.915829,0.858 122.915829,1.137 L122.915829,14.653 C122.915829,16.048 122.109829,16.885 120.745829,16.885 C119.381829,16.885 118.575829,16.048 118.575829,14.622 L118.575829,1.137 C118.575829,0.858 118.358829,0.61 118.048829,0.61 L112.716829,0.61 C112.437829,0.61 112.189829,0.858 112.189829,1.137 L112.189829,14.064 C112.251829,19.551 115.196829,22.434 120.745829,22.434 C126.356829,22.434 129.301829,19.551 129.301829,14.064 L129.301829,1.137 C129.301829,0.858 129.084829,0.61 128.774829,0.61 L123.442829,0.61 Z M131.271658,0.61 C131.054658,0.61 130.837658,0.827 130.837658,1.075 L130.837658,21.566 C130.837658,21.783 131.054658,22 131.271658,22 L136.758658,22 C137.037658,22 137.223658,21.783 137.223658,21.566 L137.223658,1.075 C137.223658,0.827 137.037658,0.61 136.758658,0.61 L131.271658,0.61 Z M139.379487,0.61 C139.162487,0.61 138.945487,0.827 138.945487,1.075 L138.945487,21.535 C138.945487,21.783 139.162487,22 139.379487,22 L146.571487,22 C153.143487,22 157.514487,17.691 157.514487,11.305 C157.514487,4.857 153.143487,0.61 146.571487,0.61 L139.379487,0.61 Z M145.331487,16.42 L145.331487,6.19 L146.943487,6.19 C149.330487,6.19 150.942487,8.236 150.942487,11.305 C150.942487,14.374 149.330487,16.42 146.943487,16.42 L145.331487,16.42 Z M165.126316,16.42 L165.126316,13.785 L171.140316,13.785 C171.419316,13.785 171.636316,13.568 171.667316,13.382 L172.101316,9.042 C172.132316,8.856 171.977316,8.639 171.698316,8.639 L165.126316,8.639 L165.126316,6.19 L173.217316,6.19 C173.496316,6.19 173.713316,6.004 173.713316,5.725 L173.713316,1.044 C173.713316,0.827 173.496316,0.61 173.217316,0.61 L159.112316,0.61 C158.833316,0.61 158.678316,0.765 158.678316,1.044 L158.678316,21.535 C158.740316,21.752 158.957316,22 159.174316,22 L173.589316,22 C173.837316,22 174.054316,21.783 174.054316,21.566 L174.054316,16.823 C174.054316,16.606 173.837316,16.42 173.589316,16.42 L165.126316,16.42 Z M186.273631,0.61 C186.025631,0.61 185.839631,0.858 185.839631,1.075 L185.839631,21.566 C185.839631,21.783 186.025631,22 186.273631,22 L196.100631,22 C200.130631,22 202.827631,19.582 202.827631,15.955 C202.827631,13.382 201.556631,11.522 199.603631,11.026 C201.277631,10.53 202.362631,8.887 202.362631,6.655 C202.362631,3.028 199.665631,0.61 195.604631,0.61 L186.273631,0.61 Z M192.225631,9.011 L192.225631,6.159 L194.178631,6.159 C195.108631,6.159 195.728631,6.717 195.728631,7.585 C195.728631,8.453 195.108631,9.011 194.178631,9.011 L192.225631,9.011 Z M192.225631,16.451 L192.225631,13.475 L194.736631,13.475 C195.635631,13.475 196.255631,14.064 196.255631,14.963 C196.255631,15.862 195.635631,16.451 194.736631,16.451 L192.225631,16.451 Z M210.50146,16.42 L210.50146,1.075 C210.50146,0.827 210.28446,0.61 210.03646,0.61 L204.54946,0.61 C204.30146,0.61 204.08446,0.827 204.08446,1.075 L204.08446,21.566 C204.08446,21.783 204.30146,22 204.54946,22 L215.74046,22 C215.98846,22 216.20546,21.783 216.23646,21.566 L216.67046,16.854 C216.67046,16.606 216.48446,16.42 216.26746,16.42 L210.50146,16.42 Z M228.157289,22.434 C221.554289,22.434 217.152289,17.97 217.152289,11.305 C217.152289,4.578 221.554289,0.114 228.157289,0.114 C234.760289,0.114 239.162289,4.578 239.162289,11.305 C239.162289,17.97 234.760289,22.434 228.157289,22.434 Z M228.157289,6.376 C225.615289,6.376 223.910289,8.36 223.910289,11.305 C223.910289,14.25 225.615289,16.234 228.157289,16.234 C230.699289,16.234 232.404289,14.25 232.404289,11.305 C232.404289,8.36 230.699289,6.376 228.157289,6.376 Z M250.463118,8.887 C250.122118,8.887 249.936118,9.104 249.967118,9.414 L250.370118,13.692 C250.401118,13.909 250.587118,14.033 250.866118,14.033 L253.718118,14.033 L253.718118,15.831 C253.377118,16.203 252.602118,16.42 251.455118,16.42 C248.603118,16.42 246.681118,14.374 246.681118,11.274 C246.681118,8.236 248.603118,6.19 251.455118,6.19 C253.005118,6.19 254.648118,6.593 255.919118,7.275 C256.198118,7.337 256.415118,7.244 256.508118,7.027 L258.058118,2.47 C258.120118,2.284 258.027118,2.036 257.779118,1.912 C255.981118,0.796 253.563118,0.114 251.269118,0.114 C244.573118,0.114 240.109118,4.578 240.109118,11.274 C240.109118,17.97 244.573118,22.434 251.269118,22.434 C254.245118,22.434 257.097118,21.504 258.957118,19.923 C259.174118,19.737 259.329118,19.458 259.329118,19.179 L259.329118,9.321 C259.329118,9.104 259.112118,8.887 258.864118,8.887 L250.463118,8.887 Z" id="GUIDE-BLOG" fill="#FFFFFF"></path>
            </g>
        </g>
    </g>
</svg>