<?xml version="1.0" encoding="UTF-8" standalone="no"?>
<svg width="98px" height="86px" viewBox="0 0 98 86" version="1.1" xmlns="http://www.w3.org/2000/svg" xmlns:xlink="http://www.w3.org/1999/xlink">
    <!-- Generator: Sketch 41 (35326) - http://www.bohemiancoding.com/sketch -->
    <title>Group</title>
    <desc>Created with Sketch.</desc>
    <defs></defs>
    <g id="Page-1" stroke="none" stroke-width="1" fill="none" fill-rule="evenodd">
        <g id="iPhone-5/5S/5C-Copy-14" transform="translate(-18.000000, -18.000000)">
            <g id="Group" transform="translate(18.000000, 18.000000)">
                <path d="M13.4798727,0.75473389 C13.1918727,0.75473389 12.9758727,1.00673389 12.9758727,1.29473389 L12.9758727,10.6907339 L7.93587268,10.6907339 L7.93587268,1.29473389 C7.93587268,1.00673389 7.71987268,0.75473389 7.39587268,0.75473389 L0.663872679,0.75473389 C0.411872679,0.75473389 0.159872679,1.00673389 0.159872679,1.29473389 L0.159872679,25.0907339 C0.159872679,25.3427339 0.411872679,25.5947339 0.663872679,25.5947339 L7.39587268,25.5947339 C7.71987268,25.5947339 7.93587268,25.3427339 7.93587268,25.0907339 L7.93587268,17.0267339 L12.9758727,17.0267339 L12.9758727,25.0907339 C12.9758727,25.3427339 13.1918727,25.5947339 13.4798727,25.5947339 L20.2118727,25.5947339 C20.5358727,25.5947339 20.7518727,25.3427339 20.7518727,25.0907339 L20.7518727,1.29473389 C20.7518727,1.00673389 20.5358727,0.75473389 20.2118727,0.75473389 L13.4798727,0.75473389 Z M35.1878728,26.0987339 C27.5198728,26.0987339 22.4078728,20.9147339 22.4078728,13.1747339 C22.4078728,5.36273389 27.5198728,0.17873389 35.1878728,0.17873389 C42.8558728,0.17873389 47.9678728,5.36273389 47.9678728,13.1747339 C47.9678728,20.9147339 42.8558728,26.0987339 35.1878728,26.0987339 Z M35.1878728,7.45073389 C32.2358728,7.45073389 30.2558728,9.75473389 30.2558728,13.1747339 C30.2558728,16.5947339 32.2358728,18.8987339 35.1878728,18.8987339 C38.1398728,18.8987339 40.1198728,16.5947339 40.1198728,13.1747339 C40.1198728,9.75473389 38.1398728,7.45073389 35.1878728,7.45073389 Z M70.071873,0.75473389 C69.603873,0.75473389 69.063873,1.07873389 68.847873,1.47473389 L63.879873,15.2267339 L58.911873,1.47473389 C58.695873,1.07873389 58.155873,0.75473389 57.687873,0.75473389 L50.163873,0.75473389 C49.875873,0.75473389 49.659873,1.00673389 49.659873,1.29473389 L49.659873,25.0907339 C49.659873,25.3427339 49.875873,25.5947339 50.163873,25.5947339 L56.823873,25.5947339 C57.111873,25.5947339 57.363873,25.3427339 57.363873,25.0907339 L57.363873,14.5067339 L60.999873,25.0547339 C61.107873,25.3427339 61.575873,25.5947339 61.899873,25.5947339 L65.859873,25.5947339 C66.183873,25.5947339 66.651873,25.3427339 66.759873,25.0547339 L70.395873,14.5067339 L70.395873,25.0907339 C70.395873,25.3427339 70.647873,25.5947339 70.935873,25.5947339 L77.595873,25.5947339 C77.883873,25.5947339 78.099873,25.3427339 78.099873,25.0907339 L78.099873,1.29473389 C78.099873,1.00673389 77.883873,0.75473389 77.595873,0.75473389 L70.071873,0.75473389 Z M87.5318731,19.1147339 L87.5318731,16.0547339 L94.5158731,16.0547339 C94.8398731,16.0547339 95.0918731,15.8027339 95.1278731,15.5867339 L95.6318731,10.5467339 C95.6678731,10.3307339 95.4878731,10.0787339 95.1638731,10.0787339 L87.5318731,10.0787339 L87.5318731,7.23473389 L96.9278731,7.23473389 C97.2518731,7.23473389 97.5038731,7.01873389 97.5038731,6.69473389 L97.5038731,1.25873389 C97.5038731,1.00673389 97.2518731,0.75473389 96.9278731,0.75473389 L80.5478731,0.75473389 C80.2238731,0.75473389 80.0438731,0.93473389 80.0438731,1.25873389 L80.0438731,25.0547339 C80.1158731,25.3067339 80.3678731,25.5947339 80.6198731,25.5947339 L97.3598731,25.5947339 C97.6478731,25.5947339 97.8998731,25.3427339 97.8998731,25.0907339 L97.8998731,19.5827339 C97.8998731,19.3307339 97.6478731,19.1147339 97.3598731,19.1147339 L87.5318731,19.1147339 Z" id="HOME" fill="#3B3B3B"></path>
                <path d="M12.6078727,40.3667339 C12.2118727,40.3667339 11.9958727,40.6187339 12.0318727,40.9787339 L12.4998727,45.9467339 C12.5358727,46.1987339 12.7518727,46.3427339 13.0758727,46.3427339 L16.3878727,46.3427339 L16.3878727,48.4307339 C15.9918727,48.8627339 15.0918727,49.1147339 13.7598727,49.1147339 C10.4478727,49.1147339 8.21587268,46.7387339 8.21587268,43.1387339 C8.21587268,39.6107339 10.4478727,37.2347339 13.7598727,37.2347339 C15.5598727,37.2347339 17.4678727,37.7027339 18.9438727,38.4947339 C19.2678727,38.5667339 19.5198727,38.4587339 19.6278727,38.2067339 L21.4278727,32.9147339 C21.4998727,32.6987339 21.3918727,32.4107339 21.1038727,32.2667339 C19.0158727,30.9707339 16.2078727,30.1787339 13.5438727,30.1787339 C5.76787268,30.1787339 0.583872679,35.3627339 0.583872679,43.1387339 C0.583872679,50.9147339 5.76787268,56.0987339 13.5438727,56.0987339 C16.9998727,56.0987339 20.3118727,55.0187339 22.4718727,53.1827339 C22.7238727,52.9667339 22.9038727,52.6427339 22.9038727,52.3187339 L22.9038727,40.8707339 C22.9038727,40.6187339 22.6518727,40.3667339 22.3638727,40.3667339 L12.6078727,40.3667339 Z M37.5394157,30.7547339 C37.2154157,30.7547339 36.9274157,31.0427339 36.9274157,31.3667339 L36.9274157,47.0627339 C36.9274157,48.6827339 35.9914157,49.6547339 34.4074157,49.6547339 C32.8234157,49.6547339 31.8874157,48.6827339 31.8874157,47.0267339 L31.8874157,31.3667339 C31.8874157,31.0427339 31.6354157,30.7547339 31.2754157,30.7547339 L25.0834157,30.7547339 C24.7594157,30.7547339 24.4714157,31.0427339 24.4714157,31.3667339 L24.4714157,46.3787339 C24.5434157,52.7507339 27.9634157,56.0987339 34.4074157,56.0987339 C40.9234157,56.0987339 44.3434157,52.7507339 44.3434157,46.3787339 L44.3434157,31.3667339 C44.3434157,31.0427339 44.0914157,30.7547339 43.7314157,30.7547339 L37.5394157,30.7547339 Z M46.6309587,30.7547339 C46.3789587,30.7547339 46.1269587,31.0067339 46.1269587,31.2947339 L46.1269587,55.0907339 C46.1269587,55.3427339 46.3789587,55.5947339 46.6309587,55.5947339 L53.0029587,55.5947339 C53.3269587,55.5947339 53.5429587,55.3427339 53.5429587,55.0907339 L53.5429587,31.2947339 C53.5429587,31.0067339 53.3269587,30.7547339 53.0029587,30.7547339 L46.6309587,30.7547339 Z M56.0465017,30.7547339 C55.7945017,30.7547339 55.5425017,31.0067339 55.5425017,31.2947339 L55.5425017,55.0547339 C55.5425017,55.3427339 55.7945017,55.5947339 56.0465017,55.5947339 L64.3985017,55.5947339 C72.0305017,55.5947339 77.1065017,50.5907339 77.1065017,43.1747339 C77.1065017,35.6867339 72.0305017,30.7547339 64.3985017,30.7547339 L56.0465017,30.7547339 Z M62.9585017,49.1147339 L62.9585017,37.2347339 L64.8305017,37.2347339 C67.6025017,37.2347339 69.4745017,39.6107339 69.4745017,43.1747339 C69.4745017,46.7387339 67.6025017,49.1147339 64.8305017,49.1147339 L62.9585017,49.1147339 Z M85.9460447,49.1147339 L85.9460447,46.0547339 L92.9300447,46.0547339 C93.2540447,46.0547339 93.5060447,45.8027339 93.5420447,45.5867339 L94.0460447,40.5467339 C94.0820447,40.3307339 93.9020447,40.0787339 93.5780447,40.0787339 L85.9460447,40.0787339 L85.9460447,37.2347339 L95.3420447,37.2347339 C95.6660447,37.2347339 95.9180447,37.0187339 95.9180447,36.6947339 L95.9180447,31.2587339 C95.9180447,31.0067339 95.6660447,30.7547339 95.3420447,30.7547339 L78.9620447,30.7547339 C78.6380447,30.7547339 78.4580447,30.9347339 78.4580447,31.2587339 L78.4580447,55.0547339 C78.5300447,55.3067339 78.7820447,55.5947339 79.0340447,55.5947339 L95.7740447,55.5947339 C96.0620447,55.5947339 96.3140447,55.3427339 96.3140447,55.0907339 L96.3140447,49.5827339 C96.3140447,49.3307339 96.0620447,49.1147339 95.7740447,49.1147339 L85.9460447,49.1147339 Z M1.66387268,59.7547339 C1.37587268,59.7547339 1.15987268,60.0427339 1.15987268,60.2947339 L1.15987268,84.0907339 C1.15987268,84.3427339 1.37587268,84.5947339 1.66387268,84.5947339 L13.0758727,84.5947339 C17.7558727,84.5947339 20.8878727,81.7867339 20.8878727,77.5747339 C20.8878727,74.5867339 19.4118727,72.4267339 17.1438727,71.8507339 C19.0878727,71.2747339 20.3478727,69.3667339 20.3478727,66.7747339 C20.3478727,62.5627339 17.2158727,59.7547339 12.4998727,59.7547339 L1.66387268,59.7547339 Z M8.57587268,69.5107339 L8.57587268,66.1987339 L10.8438727,66.1987339 C11.9238727,66.1987339 12.6438727,66.8467339 12.6438727,67.8547339 C12.6438727,68.8627339 11.9238727,69.5107339 10.8438727,69.5107339 L8.57587268,69.5107339 Z M8.57587268,78.1507339 L8.57587268,74.6947339 L11.4918727,74.6947339 C12.5358727,74.6947339 13.2558727,75.3787339 13.2558727,76.4227339 C13.2558727,77.4667339 12.5358727,78.1507339 11.4918727,78.1507339 L8.57587268,78.1507339 Z M29.7994157,78.1147339 L29.7994157,60.2947339 C29.7994157,60.0067339 29.5474157,59.7547339 29.2594157,59.7547339 L22.8874157,59.7547339 C22.5994157,59.7547339 22.3474157,60.0067339 22.3474157,60.2947339 L22.3474157,84.0907339 C22.3474157,84.3427339 22.5994157,84.5947339 22.8874157,84.5947339 L35.8834157,84.5947339 C36.1714157,84.5947339 36.4234157,84.3427339 36.4594157,84.0907339 L36.9634157,78.6187339 C36.9634157,78.3307339 36.7474157,78.1147339 36.4954157,78.1147339 L29.7994157,78.1147339 Z M50.3029587,85.0987339 C42.6349587,85.0987339 37.5229587,79.9147339 37.5229587,72.1747339 C37.5229587,64.3627339 42.6349587,59.1787339 50.3029587,59.1787339 C57.9709587,59.1787339 63.0829587,64.3627339 63.0829587,72.1747339 C63.0829587,79.9147339 57.9709587,85.0987339 50.3029587,85.0987339 Z M50.3029587,66.4507339 C47.3509587,66.4507339 45.3709587,68.7547339 45.3709587,72.1747339 C45.3709587,75.5947339 47.3509587,77.8987339 50.3029587,77.8987339 C53.2549587,77.8987339 55.2349587,75.5947339 55.2349587,72.1747339 C55.2349587,68.7547339 53.2549587,66.4507339 50.3029587,66.4507339 Z M76.2065017,69.3667339 C75.8105017,69.3667339 75.5945017,69.6187339 75.6305017,69.9787339 L76.0985017,74.9467339 C76.1345017,75.1987339 76.3505017,75.3427339 76.6745017,75.3427339 L79.9865017,75.3427339 L79.9865017,77.4307339 C79.5905017,77.8627339 78.6905017,78.1147339 77.3585017,78.1147339 C74.0465017,78.1147339 71.8145017,75.7387339 71.8145017,72.1387339 C71.8145017,68.6107339 74.0465017,66.2347339 77.3585017,66.2347339 C79.1585017,66.2347339 81.0665017,66.7027339 82.5425017,67.4947339 C82.8665017,67.5667339 83.1185017,67.4587339 83.2265017,67.2067339 L85.0265017,61.9147339 C85.0985017,61.6987339 84.9905017,61.4107339 84.7025017,61.2667339 C82.6145017,59.9707339 79.8065017,59.1787339 77.1425017,59.1787339 C69.3665017,59.1787339 64.1825017,64.3627339 64.1825017,72.1387339 C64.1825017,79.9147339 69.3665017,85.0987339 77.1425017,85.0987339 C80.5985017,85.0987339 83.9105017,84.0187339 86.0705017,82.1827339 C86.3225017,81.9667339 86.5025017,81.6427339 86.5025017,81.3187339 L86.5025017,69.8707339 C86.5025017,69.6187339 86.2505017,69.3667339 85.9625017,69.3667339 L76.2065017,69.3667339 Z" id="GUIDE-BLOG" fill="#FFFFFF"></path>
            </g>
        </g>
    </g>
</svg>