<?xml version="1.0" encoding="UTF-8" standalone="no"?>
<svg width="261px" height="33px" viewBox="0 0 261 33" version="1.1" xmlns="http://www.w3.org/2000/svg" xmlns:xlink="http://www.w3.org/1999/xlink">
    <!-- Generator: Sketch 43.2 (39069) - http://www.bohemiancoding.com/sketch -->
    <title>Group</title>
    <desc>Created with Sketch.</desc>
    <defs></defs>
    <g id="Page-1" stroke="none" stroke-width="1" fill="none" fill-rule="evenodd">
        <g id="Desktop-HD" transform="translate(-270.000000, -366.000000)">
            <g id="Group" transform="translate(270.390341, 366.282110)">
                <g id="Group-2">
                    <polygon id="Path-2" fill="#A73EBD" points="33.3476282 8.39898152 18.369601 1.39321065 6.56343022 6.65733525 3.28171511 14.3146705 5.46952518 19.7841957 8.67257946 23.9116102 25.1464207 31.6364617 21.8781007 27.4415309 19.6902906 20.8781007 20.7841957 14.3146705 25.1598158 11.0329554 33.9110561 9.93905036"></polygon>
                    <path d="M20.3898429,2.62629519 C18.2873574,0.998564501 15.6422951,0.0151438734 12.7937663,0.0151438734 C6.01155513,0.0151438734 0.484052978,5.54264602 0.484052978,12.3248572 C0.484052978,19.1070685 6.01155513,24.6345706 12.7937663,24.6345706 C15.7779393,24.6345706 18.5247348,23.5494168 20.6611314,21.7860419 L17.6091363,18.2932031 C13.1328769,21.6843087 5.77417773,19.0053353 5.77417773,12.3248572 C5.77417773,5.94957869 12.7259442,3.16887209 17.3378479,6.15304503 L20.3898429,2.62629519 Z M41.584253,15.3768523 L41.584253,0.388165491 L36.8367051,0.388165491 L36.8367051,15.4107633 L36.8706162,15.4107633 C36.8367051,16.5976503 36.3958614,17.6828041 35.548085,18.5305805 C34.7003086,19.3783569 33.6151548,19.8192006 32.4282678,19.8192006 C31.2413809,19.8192006 30.122316,19.3783569 29.2745396,18.5305805 C28.4267632,17.6828041 27.9520084,16.5637393 27.9520084,15.3768523 L27.9520084,0.388165491 L23.2044606,0.388165491 L23.2044606,15.4107633 C23.2383716,20.4635107 27.3416094,24.5667485 32.4282678,24.5667485 C37.4810152,24.5667485 41.618164,20.4635107 41.618164,15.3768523 L41.584253,15.3768523 Z M45.1788249,0.422076547 L51.6558367,0.422076547 C55.487786,0.422076547 58.6076032,3.54189371 58.6076032,7.37384305 C58.6076032,8.83201846 58.1667594,10.1545497 57.3868051,11.2736145 C59.116269,12.5961457 60.2014228,14.6647201 60.2014228,16.9706719 C60.2014228,20.9721766 56.9798725,24.1598158 53.0122789,24.1598158 L45.1788249,24.1598158 L45.1788249,0.422076547 Z M49.3837959,9.81543909 L51.4523703,9.81543909 C52.7749015,9.81543909 54.1991659,8.73028529 54.1991659,7.06864355 C54.1991659,5.4070018 52.7749015,4.38967011 51.4523703,4.38967011 L49.3837959,4.38967011 L49.3837959,9.81543909 Z M49.4855291,20.1244001 L52.9444568,20.1244001 C54.5382764,20.1244001 55.8608076,18.8696911 55.8608076,17.2758714 C55.8608076,15.6820518 54.5382764,14.3934317 52.9444568,14.3934317 L49.4855291,14.3934317 L49.4855291,20.1244001 Z M80.1072127,0.388165491 L64.2707495,0.388165491 L64.2707495,24.1598158 L80.0054796,24.1598158 L80.0054796,19.412268 L69.0182974,19.412268 L69.0182974,14.2577874 L78.1742825,14.2577874 L78.1742825,9.51023959 L69.0182974,9.51023959 L69.0182974,5.13571335 L80.1072127,5.13571335 L80.1072127,0.388165491 Z M114.594757,2.62629519 C112.492271,0.998564501 109.847209,0.0151438734 106.99868,0.0151438734 C100.216469,0.0151438734 94.6889669,5.54264602 94.6889669,12.3248572 C94.6889669,19.1070685 100.216469,24.6345706 106.99868,24.6345706 C109.982853,24.6345706 112.729649,23.5494168 114.866045,21.7860419 L111.81405,18.2932031 C107.337791,21.6843087 99.9790916,19.0053353 99.9790916,12.3248572 C99.9790916,5.94957869 106.930858,3.16887209 111.542762,6.15304503 L114.594757,2.62629519 Z M135.110946,0.388165491 L119.274483,0.388165491 L119.274483,24.1598158 L135.009213,24.1598158 L135.009213,19.412268 L124.02203,19.412268 L124.02203,14.2577874 L133.178016,14.2577874 L133.178016,9.51023959 L124.02203,9.51023959 L124.02203,5.13571335 L135.110946,5.13571335 L135.110946,0.388165491 Z M157.627887,24.1598158 L144.266931,10.2901939 L144.266931,24.1598158 L139.519383,24.1598158 L139.519383,0.388165491 L141.01147,0.388165491 L154.135048,13.6812995 L154.135048,0.388165491 L158.882596,0.388165491 L158.882596,24.1598158 L157.627887,24.1598158 Z M162.782368,0.388165491 L162.782368,5.13571335 L169.395023,5.13571335 L169.395023,24.1598158 L174.142571,24.1598158 L174.142571,5.13571335 L180.721316,5.13571335 L180.721316,0.388165491 L162.782368,0.388165491 Z M184.281977,0.354254435 L193.641429,0.354254435 C197.575111,0.354254435 200.76275,3.57580477 200.76275,7.50948727 C200.76275,10.391927 198.897642,13.4778332 195.94738,13.986499 L200.898395,24.1598158 L195.845647,24.1598158 L191.403299,14.6308091 L191.403299,14.596898 L189.029525,9.47632853 L189.029525,24.1259048 L184.281977,24.1259048 L184.281977,0.354254435 Z M191.606765,5.10180229 L193.946628,9.84935015 C195.099604,9.71370592 196.015203,8.73028529 196.015203,7.50948727 C196.015203,6.18695609 194.96396,5.10180229 193.641429,5.10180229 L191.606765,5.10180229 Z M216.260103,0.388165491 L226.908175,22.9051068 L226.908175,24.1598158 L203.407813,24.1598158 L203.407813,22.9051068 L214.86975,0.388165491 L216.260103,0.388165491 Z M210.495223,19.412268 L219.990319,19.412268 L215.446238,9.71370592 L210.495223,19.412268 Z M234.605984,0.388165491 L229.858437,0.388165491 L229.858437,24.1259048 L243.45677,24.1259048 L243.45677,19.412268 L234.605984,19.412268 L234.605984,0.388165491 Z" id="CUBE-CENTRAL" fill="#A73EBD"></path>
                    <polygon id="Path-3" fill="#A73EBD" points="44.891935 31.3573147 29.0036656 23.9095563 24.7790513 18.5397629 23.2141053 3.52616201 23.3078859 0.39045841 39.6135446 8.03819382 41.7977061 17.9667772 41.7977061 23.3656293 45.3204195 29.8008222"></polygon>
                    <polygon id="Path-4" fill="#A73EBD" points="23.2767977 0.41037646 27.8426612 0.317001122 44.2881543 8.11403239 39.4584314 8.27212713"></polygon>
                    <polygon id="Path-7" fill="#A73EBD" points="61.5951576 31.85151 51.3842305 23.1170907 45.8060937 10.0203707 46.3811126 1.25666758 51.8874529 1.25666758 54.2108142 0.925498051 61.6789458 8.15042708"></polygon>
                    <polygon id="Path-5" fill="#A73EBD" points="58.0189166 8.06513112 41.5345424 0.426054752 36.8576168 0.423605074 36.8164622 6.23571147 42.99896 28.2431301 51.645099 28.8773518 55.0589705 23.737682 53.2782995 8.07297009"></polygon>
                    <polygon id="Path-8" fill="#A73EBD" points="69.1831527 8.15336009 54.4731536 1.0579114 63.7112581 30.0177967 69.9590827 29.7759425 74.7598659 24.939766 72.0164315 20.7089056 72.9039865 14.7837045"></polygon>
                    <polygon id="Path-6" fill="#A73EBD" points="34.0236082 25.6151959 45.6744876 30.9293048 37.4257778 22.7536381 26.4294656 12.0694193 17.327848 16.4645502 22.8953583 27.9278959 30.3649413 29.3703134"></polygon>
                    <polygon id="Path-11" fill="#A73EBD" points="94.6056652 17.2201729 84.4968124 10.9664169 83.7629496 18.2964153"></polygon>
                    <polygon id="Path-12" fill="#A73EBD" points="96.4281843 27.0903607 87.8728986 21.15147 83.6452456 21.0119781 83.7207939 28.7756249"></polygon>
                    <polygon id="Path-13" fill="#A73EBD" points="118.662509 31.3218563 101.451146 23.3365986 98.1310554 13.7019666 101.887059 3.13245945 111.270755 0.776982374 128.954009 8.97648328 116.871175 13.9370782 114.501403 20.4058082 115.841065 27.3659199 120.674509 29.3111543"></polygon>
                    <polygon id="Path-15" fill="#A73EBD" points="135.669458 31.760135 119.195512 24.0905763 119.351218 0.310034483 135.711891 8.05323784"></polygon>
                    <polygon id="Path-16" fill="#A73EBD" points="151.348393 27.0633632 142.50543 21.7434178 138.892637 21.4975851 138.892637 29.1285681 150.303341 28.224493"></polygon>
                    <polygon id="Path-17" fill="#A73EBD" points="149.639448 17.1452312 137.623552 9.24812502 139.024855 19.4489479 148.133586 19.1949059"></polygon>
                    <polygon id="Path-20" fill="#A73EBD" points="174.026827 31.8054375 142.840892 11.8248823 161.690399 16.7453048"></polygon>
                    <polygon id="Path-23" fill="#A73EBD" points="179.278536 7.99906409 162.772985 0.350517566 162.673733 5.08172841 179.216528 12.7191809"></polygon>
                    <polygon id="Path-26" fill="#A73EBD" points="200.783652 7.98296868 184.366707 0.354206145 188.725266 23.1458411 200.675996 31.7931026"></polygon>
                    <polygon id="Path-24" fill="#A73EBD" points="185.806332 31.8299138 170.198462 22.5520642 169.656638 8.70888439 186.199631 11.7007086"></polygon>
                    <polygon id="Path-27" fill="#A73EBD" points="194.77094 0.429202502 214.121512 9.33471754 211.332131 21.5875498 212.215153 31.7628621 197.461737 24.056684"></polygon>
                    <polygon id="Path-28" fill="#A73EBD" points="231.330261 8.03451688 214.908873 0.41431488 203.633072 21.8260129 219.846476 30.7150428"></polygon>
                    <polygon id="Path-18" fill="#A73EBD" points="139.513987 0.386009194 155.953052 8.10340616 155.987111 31.9530802 141.036529 24.1017955"></polygon>
                    <polygon id="Path-21" fill="#A73EBD" points="154.137405 0.389464369 170.624331 8.16269735 170.439724 23.1826981 154.581892 13.117642"></polygon>
                    <polygon id="Path-31" fill="#A73EBD" points="236.287472 27.0273183 223.429187 19.4938403 233.647265 14.7627449"></polygon>
                    <polygon id="Path-33" fill="#A73EBD" points="229.85808 0.3780054 246.320847 8.03577948 246.249478 31.7687709 230.601812 25.3020693 229.857812 2.28410056"></polygon>
                    <polygon id="Path-32" fill="#A73EBD" points="237.169691 27.5363706 225.029729 27.3471121 227.727528 21.85968 237.095691 25.0752114"></polygon>
                    <polygon id="Path-29" fill="#A73EBD" points="219.869918 31.7916621 207.222393 25.1918726 218.111526 23.8774824 219.833115 30.6748157"></polygon>
                    <polygon id="Path-9" fill="#A73EBD" points="80.7468703 31.8617552 69.5178702 23.3346963 66.6790166 15.7126587 66.5622256 3.78334966 64.3160756 0.452836358 80.6690096 7.95370872"></polygon>
                    <path d="M36.7984185,10.2836304 C34.695933,8.65589975 32.0508706,7.67247913 29.2023419,7.67247913 C22.4201307,7.67247913 16.8926285,13.1999813 16.8926285,19.9821925 C16.8926285,26.7644037 22.4201307,32.2919059 29.2023419,32.2919059 C32.1865148,32.2919059 34.9333104,31.2067521 37.0697069,29.4433772 L34.0177119,25.9505384 C29.5414524,29.341644 22.1827533,26.6626705 22.1827533,19.9821925 C22.1827533,13.6069139 29.1345198,10.8262073 33.7464234,13.8103803 L36.7984185,10.2836304 Z M57.9928285,23.0341875 L57.9928285,8.04550074 L53.2452807,8.04550074 L53.2452807,23.0680986 L53.2791917,23.0680986 C53.2452807,24.2549856 52.8044369,25.3401394 51.9566605,26.1879158 C51.1088841,27.0356922 50.0237303,27.4765359 48.8368434,27.4765359 C47.6499564,27.4765359 46.5308916,27.0356922 45.6831152,26.1879158 C44.8353388,25.3401394 44.360584,24.2210745 44.360584,23.0341875 L44.360584,8.04550074 L39.6130361,8.04550074 L39.6130361,23.0680986 C39.6469472,28.120846 43.750185,32.2240838 48.8368434,32.2240838 C53.8895907,32.2240838 58.0267396,28.120846 58.0267396,23.0341875 L57.9928285,23.0341875 Z M61.5874005,8.0794118 L68.0644122,8.0794118 C71.8963615,8.0794118 75.0161787,11.199229 75.0161787,15.0311783 C75.0161787,16.4893537 74.575335,17.8118849 73.7953807,18.9309498 C75.5248445,20.2534809 76.6099983,22.3220554 76.6099983,24.6280072 C76.6099983,28.6295118 73.388448,31.8171511 69.4208544,31.8171511 L61.5874005,31.8171511 L61.5874005,8.0794118 Z M65.7923714,17.4727743 L67.8609459,17.4727743 C69.183477,17.4727743 70.6077414,16.3876205 70.6077414,14.7259788 C70.6077414,13.064337 69.183477,12.0470054 67.8609459,12.0470054 L65.7923714,12.0470054 L65.7923714,17.4727743 Z M65.8941046,27.7817354 L69.3530323,27.7817354 C70.946852,27.7817354 72.2693832,26.5270263 72.2693832,24.9332067 C72.2693832,23.339387 70.946852,22.0507669 69.3530323,22.0507669 L65.8941046,22.0507669 L65.8941046,27.7817354 Z M96.5157883,8.04550074 L80.6793251,8.04550074 L80.6793251,31.8171511 L96.4140551,31.8171511 L96.4140551,27.0696032 L85.4268729,27.0696032 L85.4268729,21.9151227 L94.5828581,21.9151227 L94.5828581,17.1675748 L85.4268729,17.1675748 L85.4268729,12.7930486 L96.5157883,12.7930486 L96.5157883,8.04550074 Z M131.003332,10.2836304 C128.900847,8.65589975 126.255784,7.67247913 123.407256,7.67247913 C116.625045,7.67247913 111.097542,13.1999813 111.097542,19.9821925 C111.097542,26.7644037 116.625045,32.2919059 123.407256,32.2919059 C126.391429,32.2919059 129.138224,31.2067521 131.274621,29.4433772 L128.222626,25.9505384 C123.746366,29.341644 116.387667,26.6626705 116.387667,19.9821925 C116.387667,13.6069139 123.339434,10.8262073 127.951337,13.8103803 L131.003332,10.2836304 Z M151.519521,8.04550074 L135.683058,8.04550074 L135.683058,31.8171511 L151.417788,31.8171511 L151.417788,27.0696032 L140.430606,27.0696032 L140.430606,21.9151227 L149.586591,21.9151227 L149.586591,17.1675748 L140.430606,17.1675748 L140.430606,12.7930486 L151.519521,12.7930486 L151.519521,8.04550074 Z M174.036463,31.8171511 L160.675506,17.9475291 L160.675506,31.8171511 L155.927959,31.8171511 L155.927959,8.04550074 L157.420045,8.04550074 L170.543624,21.3386347 L170.543624,8.04550074 L175.291172,8.04550074 L175.291172,31.8171511 L174.036463,31.8171511 Z M179.190943,8.04550074 L179.190943,12.7930486 L185.803599,12.7930486 L185.803599,31.8171511 L190.551147,31.8171511 L190.551147,12.7930486 L197.129892,12.7930486 L197.129892,8.04550074 L179.190943,8.04550074 Z M200.690553,8.01158969 L210.050004,8.01158969 C213.983687,8.01158969 217.171326,11.23314 217.171326,15.1668225 C217.171326,18.0492623 215.306218,21.1351684 212.355956,21.6438342 L217.30697,31.8171511 L212.254223,31.8171511 L207.811874,22.2881443 L207.811874,22.2542333 L205.438101,17.1336638 L205.438101,31.78324 L200.690553,31.78324 L200.690553,8.01158969 Z M208.015341,12.7591375 L210.355204,17.5066854 C211.50818,17.3710412 212.423778,16.3876205 212.423778,15.1668225 C212.423778,13.8442913 211.372535,12.7591375 210.050004,12.7591375 L208.015341,12.7591375 Z M232.668679,8.04550074 L243.31675,30.562442 L243.31675,31.8171511 L219.816388,31.8171511 L219.816388,30.562442 L231.278325,8.04550074 L232.668679,8.04550074 Z M226.903799,27.0696032 L236.398895,27.0696032 L231.854813,17.3710412 L226.903799,27.0696032 Z M251.01456,8.04550074 L246.267012,8.04550074 L246.267012,31.78324 L259.865346,31.78324 L259.865346,27.0696032 L251.01456,27.0696032 L251.01456,8.04550074 Z" id="CUBE-CENTRAL" fill="#FFFFFF"></path>
                    <polygon id="Path-10" fill="#A73EBD" points="96.4869795 8.09849463 79.8912775 0.383286632 64.4188692 0.344356282 80.7127516 8.04425459"></polygon>
                    <polygon id="Path-14" fill="#A73EBD" points="119.307733 0.380873571 135.652274 8.0269362 151.553546 8.09286565 134.908815 0.423306887"></polygon>
                    <polygon id="Path-19" fill="#A73EBD" points="139.518093 0.390515944 141.006472 0.389380911 157.41847 8.05078893 155.635723 8.0428811"></polygon>
                    <polygon id="Path-22" fill="#A73EBD" points="154.15245 0.365481552 158.874929 0.421231231 175.303437 8.07177162 170.292766 8.06993645"></polygon>
                    <polygon id="Path-25" fill="#A73EBD" points="162.87632 0.409866017 180.694523 0.385223263 197.006626 8.01436395 179.267754 8.11587927"></polygon>
                    <polygon id="Path-30" fill="#A73EBD" points="232.698183 8.02729231 216.232236 0.38353625 214.849022 0.456859753 231.228791 8.0563588"></polygon>
                    <polygon id="Path-34" fill="#A73EBD" points="229.822915 0.379596947 234.591766 0.382351158 251.024698 8.05886097 246.372443 8.0601725"></polygon>
                </g>
            </g>
        </g>
    </g>
</svg>