<?xml version="1.0" encoding="UTF-8" standalone="no"?>
<svg width="344px" height="93px" viewBox="0 0 344 93" version="1.1" xmlns="http://www.w3.org/2000/svg" xmlns:xlink="http://www.w3.org/1999/xlink">
    <!-- Generator: Sketch 39.1 (31720) - http://www.bohemiancoding.com/sketch -->
    <title>Group 3</title>
    <desc>Created with Sketch.</desc>
    <defs>
        <path d="M24.7816678,3.22258065 C22.2394576,1.2716129 19.0411932,0.0929032258 15.5969085,0.0929032258 C7.39623051,0.0929032258 0.712677966,6.71806452 0.712677966,14.8470968 C0.712677966,22.976129 7.39623051,29.6012903 15.5969085,29.6012903 C19.2052068,29.6012903 22.5264814,28.3006452 25.1096949,26.1870968 L21.4193898,22.0006452 C16.0069424,26.0651613 7.10920678,22.8541935 7.10920678,14.8470968 C7.10920678,7.20580645 15.5149017,3.87290323 21.0913627,7.44967742 L24.7816678,3.22258065 Z M49.7527324,18.5051613 L49.7527324,0.54 L44.0122579,0.54 L44.0122579,18.5458065 L44.0532613,18.5458065 C44.0122579,19.9683871 43.4792138,21.2690323 42.4541291,22.2851613 C41.4290443,23.3012903 40.1169358,23.8296774 38.6818172,23.8296774 C37.2466985,23.8296774 35.8935867,23.3012903 34.8685019,22.2851613 C33.8434172,21.2690323 33.2693697,19.9277419 33.2693697,18.5051613 L33.2693697,0.54 L27.5288952,0.54 L27.5288952,18.5458065 C27.5698985,24.6019355 32.5313087,29.52 38.6818172,29.52 C44.7913223,29.52 49.7937358,24.6019355 49.7937358,18.5051613 L49.7527324,18.5051613 Z M60.8646513,24.1548387 L60.8646513,28.9916129 L62.9148208,28.9916129 C67.7122174,28.9916129 71.6075395,25.1709677 71.6075395,20.3748387 C71.6075395,17.6109677 70.295431,15.1316129 68.2042581,13.5464516 C69.1473361,12.2051613 69.6803801,10.62 69.6803801,8.87225806 C69.6803801,4.27935484 65.9080683,0.54 61.2746852,0.54 L53.4430378,0.54 L53.4430378,17.2858065 L62.832814,17.2858065 C64.7599734,17.2858065 66.3591056,18.8303226 66.3591056,20.7406452 C66.3591056,22.6509677 64.7599734,24.1548387 62.832814,24.1548387 L60.8646513,24.1548387 Z M58.5274581,11.7987097 L58.5274581,5.29548387 L61.0286649,5.29548387 C62.6277971,5.29548387 64.3499395,6.51483871 64.3499395,8.50645161 C64.3499395,10.4980645 62.6277971,11.7987097 61.0286649,11.7987097 L58.5274581,11.7987097 Z M95.0204753,0.54 L75.8718923,0.54 L75.8718923,6.23032258 L95.0204753,6.23032258 L95.0204753,0.54 Z M75.8718923,17.2045161 L91.7402041,17.2045161 L91.7402041,11.5141935 L75.8718923,11.5141935 L75.8718923,17.2045161 Z M75.8718923,29.0322581 L94.8974651,29.0322581 L94.8974651,23.3419355 L75.8718923,23.3419355 L75.8718923,29.0322581 Z M135.408815,3.22258065 C132.866605,1.2716129 129.66834,0.0929032258 126.224055,0.0929032258 C118.023377,0.0929032258 111.339825,6.71806452 111.339825,14.8470968 C111.339825,22.976129 118.023377,29.6012903 126.224055,29.6012903 C129.832354,29.6012903 133.153628,28.3006452 135.736842,26.1870968 L132.046537,22.0006452 C126.634089,26.0651613 117.736354,22.8541935 117.736354,14.8470968 C117.736354,7.20580645 126.142049,3.87290323 131.71851,7.44967742 L135.408815,3.22258065 Z M159.559812,0.54 L140.411229,0.54 L140.411229,29.0322581 L159.436801,29.0322581 L159.436801,23.3419355 L146.151703,23.3419355 L146.151703,17.163871 L157.222618,17.163871 L157.222618,11.4735484 L146.151703,11.4735484 L146.151703,6.23032258 L159.559812,6.23032258 L159.559812,0.54 Z M186.130008,29.0322581 L169.974673,12.4083871 L169.974673,29.0322581 L164.234198,29.0322581 L164.234198,0.54 L166.038347,0.54 L181.906659,16.4729032 L181.906659,0.54 L187.647134,0.54 L187.647134,29.0322581 L186.130008,29.0322581 Z M191.70647,0.54 L191.70647,6.23032258 L199.702131,6.23032258 L199.702131,29.0322581 L205.442605,29.0322581 L205.442605,6.23032258 L213.397263,6.23032258 L213.397263,0.54 L191.70647,0.54 Z M217.046565,0.499354839 L217.046565,28.9916129 L222.787039,28.9916129 L222.787039,11.4329032 L225.657277,17.5703226 L225.657277,17.6109677 L231.028721,29.0322581 L237.138226,29.0322581 L231.151731,16.8387097 C234.719026,16.2290323 236.974212,12.5303226 236.974212,9.07548387 C236.974212,4.36064516 233.119894,0.499354839 228.3635,0.499354839 L217.046565,0.499354839 Z M225.903297,6.18967742 L228.3635,6.18967742 C229.962633,6.18967742 231.233738,7.49032258 231.233738,9.07548387 C231.233738,10.5387097 230.126646,11.7174194 228.732531,11.88 L225.903297,6.18967742 Z M255.056708,0.54 L253.375569,0.54 L239.516423,27.5283871 L239.516423,29.0322581 L267.931772,29.0322581 L267.931772,27.5283871 L255.056708,0.54 Z M248.086131,23.3419355 L254.072626,11.7174194 L259.56708,23.3419355 L248.086131,23.3419355 Z M276.583487,0.54 L270.843013,0.54 L270.843013,28.9916129 L287.285372,28.9916129 L287.285372,23.3419355 L276.583487,23.3419355 L276.583487,0.54 Z" id="path-1"></path>
        <filter x="-50%" y="-50%" width="200%" height="200%" filterUnits="objectBoundingBox" id="filter-2">
            <feGaussianBlur stdDeviation="10" in="SourceGraphic"></feGaussianBlur>
        </filter>
        <filter x="-50%" y="-50%" width="200%" height="200%" filterUnits="objectBoundingBox" id="filter-3">
            <feMorphology radius="0.5" operator="dilate" in="SourceAlpha" result="shadowSpreadOuter1"></feMorphology>
            <feOffset dx="0" dy="2" in="shadowSpreadOuter1" result="shadowOffsetOuter1"></feOffset>
            <feGaussianBlur stdDeviation="6" in="shadowOffsetOuter1" result="shadowBlurOuter1"></feGaussianBlur>
            <feComposite in="shadowBlurOuter1" in2="SourceAlpha" operator="out" result="shadowBlurOuter1"></feComposite>
            <feColorMatrix values="0 0 0 0 0.97254902   0 0 0 0 0.345098039   0 0 0 0 0.109803922  0 0 0 1 0" type="matrix" in="shadowBlurOuter1"></feColorMatrix>
        </filter>
        <filter x="-50%" y="-50%" width="200%" height="200%" filterUnits="objectBoundingBox" id="filter-4">
            <feGaussianBlur stdDeviation="0" in="SourceGraphic"></feGaussianBlur>
        </filter>
        <filter x="-50%" y="-50%" width="200%" height="200%" filterUnits="objectBoundingBox" id="filter-5">
            <feGaussianBlur stdDeviation="1" in="SourceGraphic"></feGaussianBlur>
        </filter>
    </defs>
    <g id="Page-1" stroke="none" stroke-width="1" fill="none" fill-rule="evenodd">
        <g id="Desktop-HD-Copy-3" transform="translate(-112.000000, -9.000000)">
            <g id="Group-3" transform="translate(141.000000, 39.000000)">
                <g id="CUBE-CENTRAL" filter="url(#filter-2)">
                    <use fill="black" fill-opacity="1" filter="url(#filter-3)" xlink:href="#path-1"></use>
                    <use fill="#FF5A1C" fill-rule="evenodd" xlink:href="#path-1"></use>
                </g>
                <path d="M24.7816678,3.22258065 C22.2394576,1.2716129 19.0411932,0.0929032258 15.5969085,0.0929032258 C7.39623051,0.0929032258 0.712677966,6.71806452 0.712677966,14.8470968 C0.712677966,22.976129 7.39623051,29.6012903 15.5969085,29.6012903 C19.2052068,29.6012903 22.5264814,28.3006452 25.1096949,26.1870968 L21.4193898,22.0006452 C16.0069424,26.0651613 7.10920678,22.8541935 7.10920678,14.8470968 C7.10920678,7.20580645 15.5149017,3.87290323 21.0913627,7.44967742 L24.7816678,3.22258065 Z M49.7527324,18.5051613 L49.7527324,0.54 L44.0122579,0.54 L44.0122579,18.5458065 L44.0532613,18.5458065 C44.0122579,19.9683871 43.4792138,21.2690323 42.4541291,22.2851613 C41.4290443,23.3012903 40.1169358,23.8296774 38.6818172,23.8296774 C37.2466985,23.8296774 35.8935867,23.3012903 34.8685019,22.2851613 C33.8434172,21.2690323 33.2693697,19.9277419 33.2693697,18.5051613 L33.2693697,0.54 L27.5288952,0.54 L27.5288952,18.5458065 C27.5698985,24.6019355 32.5313087,29.52 38.6818172,29.52 C44.7913223,29.52 49.7937358,24.6019355 49.7937358,18.5051613 L49.7527324,18.5051613 Z M60.8646513,24.1548387 L60.8646513,28.9916129 L62.9148208,28.9916129 C67.7122174,28.9916129 71.6075395,25.1709677 71.6075395,20.3748387 C71.6075395,17.6109677 70.295431,15.1316129 68.2042581,13.5464516 C69.1473361,12.2051613 69.6803801,10.62 69.6803801,8.87225806 C69.6803801,4.27935484 65.9080683,0.54 61.2746852,0.54 L53.4430378,0.54 L53.4430378,17.2858065 L62.832814,17.2858065 C64.7599734,17.2858065 66.3591056,18.8303226 66.3591056,20.7406452 C66.3591056,22.6509677 64.7599734,24.1548387 62.832814,24.1548387 L60.8646513,24.1548387 Z M58.5274581,11.7987097 L58.5274581,5.29548387 L61.0286649,5.29548387 C62.6277971,5.29548387 64.3499395,6.51483871 64.3499395,8.50645161 C64.3499395,10.4980645 62.6277971,11.7987097 61.0286649,11.7987097 L58.5274581,11.7987097 Z M95.0204753,0.54 L75.8718923,0.54 L75.8718923,6.23032258 L95.0204753,6.23032258 L95.0204753,0.54 Z M75.8718923,17.2045161 L91.7402041,17.2045161 L91.7402041,11.5141935 L75.8718923,11.5141935 L75.8718923,17.2045161 Z M75.8718923,29.0322581 L94.8974651,29.0322581 L94.8974651,23.3419355 L75.8718923,23.3419355 L75.8718923,29.0322581 Z M135.408815,3.22258065 C132.866605,1.2716129 129.66834,0.0929032258 126.224055,0.0929032258 C118.023377,0.0929032258 111.339825,6.71806452 111.339825,14.8470968 C111.339825,22.976129 118.023377,29.6012903 126.224055,29.6012903 C129.832354,29.6012903 133.153628,28.3006452 135.736842,26.1870968 L132.046537,22.0006452 C126.634089,26.0651613 117.736354,22.8541935 117.736354,14.8470968 C117.736354,7.20580645 126.142049,3.87290323 131.71851,7.44967742 L135.408815,3.22258065 Z M159.559812,0.54 L140.411229,0.54 L140.411229,29.0322581 L159.436801,29.0322581 L159.436801,23.3419355 L146.151703,23.3419355 L146.151703,17.163871 L157.222618,17.163871 L157.222618,11.4735484 L146.151703,11.4735484 L146.151703,6.23032258 L159.559812,6.23032258 L159.559812,0.54 Z M186.130008,29.0322581 L169.974673,12.4083871 L169.974673,29.0322581 L164.234198,29.0322581 L164.234198,0.54 L166.038347,0.54 L181.906659,16.4729032 L181.906659,0.54 L187.647134,0.54 L187.647134,29.0322581 L186.130008,29.0322581 Z M191.70647,0.54 L191.70647,6.23032258 L199.702131,6.23032258 L199.702131,29.0322581 L205.442605,29.0322581 L205.442605,6.23032258 L213.397263,6.23032258 L213.397263,0.54 L191.70647,0.54 Z M217.046565,0.499354839 L217.046565,28.9916129 L222.787039,28.9916129 L222.787039,11.4329032 L225.657277,17.5703226 L225.657277,17.6109677 L231.028721,29.0322581 L237.138226,29.0322581 L231.151731,16.8387097 C234.719026,16.2290323 236.974212,12.5303226 236.974212,9.07548387 C236.974212,4.36064516 233.119894,0.499354839 228.3635,0.499354839 L217.046565,0.499354839 Z M225.903297,6.18967742 L228.3635,6.18967742 C229.962633,6.18967742 231.233738,7.49032258 231.233738,9.07548387 C231.233738,10.5387097 230.126646,11.7174194 228.732531,11.88 L225.903297,6.18967742 Z M255.056708,0.54 L253.375569,0.54 L239.516423,27.5283871 L239.516423,29.0322581 L267.931772,29.0322581 L267.931772,27.5283871 L255.056708,0.54 Z M248.086131,23.3419355 L254.072626,11.7174194 L259.56708,23.3419355 L248.086131,23.3419355 Z M276.583487,0.54 L270.843013,0.54 L270.843013,28.9916129 L287.285372,28.9916129 L287.285372,23.3419355 L276.583487,23.3419355 L276.583487,0.54 Z" id="CUBE-CENTRAL" stroke="#F8581C" fill="#FF5A1C" filter="url(#filter-4)"></path>
                <path d="M24.7816678,3.22258065 C22.2394576,1.2716129 19.0411932,0.0929032258 15.5969085,0.0929032258 C7.39623051,0.0929032258 0.712677966,6.71806452 0.712677966,14.8470968 C0.712677966,22.976129 7.39623051,29.6012903 15.5969085,29.6012903 C19.2052068,29.6012903 22.5264814,28.3006452 25.1096949,26.1870968 L21.4193898,22.0006452 C16.0069424,26.0651613 7.10920678,22.8541935 7.10920678,14.8470968 C7.10920678,7.20580645 15.5149017,3.87290323 21.0913627,7.44967742 L24.7816678,3.22258065 Z M49.7527324,18.5051613 L49.7527324,0.54 L44.0122579,0.54 L44.0122579,18.5458065 L44.0532613,18.5458065 C44.0122579,19.9683871 43.4792138,21.2690323 42.4541291,22.2851613 C41.4290443,23.3012903 40.1169358,23.8296774 38.6818172,23.8296774 C37.2466985,23.8296774 35.8935867,23.3012903 34.8685019,22.2851613 C33.8434172,21.2690323 33.2693697,19.9277419 33.2693697,18.5051613 L33.2693697,0.54 L27.5288952,0.54 L27.5288952,18.5458065 C27.5698985,24.6019355 32.5313087,29.52 38.6818172,29.52 C44.7913223,29.52 49.7937358,24.6019355 49.7937358,18.5051613 L49.7527324,18.5051613 Z M60.8646513,24.1548387 L60.8646513,28.9916129 L62.9148208,28.9916129 C67.7122174,28.9916129 71.6075395,25.1709677 71.6075395,20.3748387 C71.6075395,17.6109677 70.295431,15.1316129 68.2042581,13.5464516 C69.1473361,12.2051613 69.6803801,10.62 69.6803801,8.87225806 C69.6803801,4.27935484 65.9080683,0.54 61.2746852,0.54 L53.4430378,0.54 L53.4430378,17.2858065 L62.832814,17.2858065 C64.7599734,17.2858065 66.3591056,18.8303226 66.3591056,20.7406452 C66.3591056,22.6509677 64.7599734,24.1548387 62.832814,24.1548387 L60.8646513,24.1548387 Z M58.5274581,11.7987097 L58.5274581,5.29548387 L61.0286649,5.29548387 C62.6277971,5.29548387 64.3499395,6.51483871 64.3499395,8.50645161 C64.3499395,10.4980645 62.6277971,11.7987097 61.0286649,11.7987097 L58.5274581,11.7987097 Z M95.0204753,0.54 L75.8718923,0.54 L75.8718923,6.23032258 L95.0204753,6.23032258 L95.0204753,0.54 Z M75.8718923,17.2045161 L91.7402041,17.2045161 L91.7402041,11.5141935 L75.8718923,11.5141935 L75.8718923,17.2045161 Z M75.8718923,29.0322581 L94.8974651,29.0322581 L94.8974651,23.3419355 L75.8718923,23.3419355 L75.8718923,29.0322581 Z M135.408815,3.22258065 C132.866605,1.2716129 129.66834,0.0929032258 126.224055,0.0929032258 C118.023377,0.0929032258 111.339825,6.71806452 111.339825,14.8470968 C111.339825,22.976129 118.023377,29.6012903 126.224055,29.6012903 C129.832354,29.6012903 133.153628,28.3006452 135.736842,26.1870968 L132.046537,22.0006452 C126.634089,26.0651613 117.736354,22.8541935 117.736354,14.8470968 C117.736354,7.20580645 126.142049,3.87290323 131.71851,7.44967742 L135.408815,3.22258065 Z M159.559812,0.54 L140.411229,0.54 L140.411229,29.0322581 L159.436801,29.0322581 L159.436801,23.3419355 L146.151703,23.3419355 L146.151703,17.163871 L157.222618,17.163871 L157.222618,11.4735484 L146.151703,11.4735484 L146.151703,6.23032258 L159.559812,6.23032258 L159.559812,0.54 Z M186.130008,29.0322581 L169.974673,12.4083871 L169.974673,29.0322581 L164.234198,29.0322581 L164.234198,0.54 L166.038347,0.54 L181.906659,16.4729032 L181.906659,0.54 L187.647134,0.54 L187.647134,29.0322581 L186.130008,29.0322581 Z M191.70647,0.54 L191.70647,6.23032258 L199.702131,6.23032258 L199.702131,29.0322581 L205.442605,29.0322581 L205.442605,6.23032258 L213.397263,6.23032258 L213.397263,0.54 L191.70647,0.54 Z M217.046565,0.499354839 L217.046565,28.9916129 L222.787039,28.9916129 L222.787039,11.4329032 L225.657277,17.5703226 L225.657277,17.6109677 L231.028721,29.0322581 L237.138226,29.0322581 L231.151731,16.8387097 C234.719026,16.2290323 236.974212,12.5303226 236.974212,9.07548387 C236.974212,4.36064516 233.119894,0.499354839 228.3635,0.499354839 L217.046565,0.499354839 Z M225.903297,6.18967742 L228.3635,6.18967742 C229.962633,6.18967742 231.233738,7.49032258 231.233738,9.07548387 C231.233738,10.5387097 230.126646,11.7174194 228.732531,11.88 L225.903297,6.18967742 Z M255.056708,0.54 L253.375569,0.54 L239.516423,27.5283871 L239.516423,29.0322581 L267.931772,29.0322581 L267.931772,27.5283871 L255.056708,0.54 Z M248.086131,23.3419355 L254.072626,11.7174194 L259.56708,23.3419355 L248.086131,23.3419355 Z M276.583487,0.54 L270.843013,0.54 L270.843013,28.9916129 L287.285372,28.9916129 L287.285372,23.3419355 L276.583487,23.3419355 L276.583487,0.54 Z" id="CUBE-CENTRAL" stroke="#FF966F" stroke-width="2" fill="#EEC9BB" filter="url(#filter-5)"></path>
            </g>
        </g>
    </g>
</svg>