<?xml version="1.0" encoding="UTF-8" standalone="no"?>
<svg width="240px" height="75px" viewBox="0 0 240 75" version="1.1" xmlns="http://www.w3.org/2000/svg" xmlns:xlink="http://www.w3.org/1999/xlink">
    <!-- Generator: Sketch 40.3 (33839) - http://www.bohemiancoding.com/sketch -->
    <title>Group 2</title>
    <desc>Created with Sketch.</desc>
    <defs>
        <path d="M16.0531225,2.1483871 C14.4063241,0.847741935 12.3345455,0.0619354839 10.1033992,0.0619354839 C4.79114625,0.0619354839 0.461660079,4.47870968 0.461660079,9.89806452 C0.461660079,15.3174194 4.79114625,19.7341935 10.1033992,19.7341935 C12.4407905,19.7341935 14.592253,18.8670968 16.2656126,17.4580645 L13.8750988,14.6670968 C10.3690119,17.3767742 4.60521739,15.236129 4.60521739,9.89806452 C4.60521739,4.80387097 10.0502767,2.58193548 13.6626087,4.96645161 L16.0531225,2.1483871 Z M32.228933,12.3367742 L32.228933,0.36 L28.5103559,0.36 L28.5103559,12.363871 L28.5369172,12.363871 C28.5103559,13.3122581 28.1650594,14.1793548 27.5010278,14.8567742 C26.8369962,15.5341935 25.9870357,15.8864516 25.0573915,15.8864516 C24.1277472,15.8864516 23.2512255,15.5341935 22.5871938,14.8567742 C21.9231622,14.1793548 21.5513045,13.2851613 21.5513045,12.3367742 L21.5513045,0.36 L17.8327274,0.36 L17.8327274,12.363871 C17.8592887,16.4012903 21.0732017,19.68 25.0573915,19.68 C29.0150199,19.68 32.2554942,16.4012903 32.2554942,12.3367742 L32.228933,12.3367742 Z M39.4270359,16.1032258 L39.4270359,19.3277419 L40.7550991,19.3277419 C43.8627671,19.3277419 46.3860873,16.7806452 46.3860873,13.5832258 C46.3860873,11.7406452 45.5361268,10.0877419 44.1815023,9.03096774 C44.7924114,8.13677419 45.1377078,7.08 45.1377078,5.91483871 C45.1377078,2.85290323 42.6940715,0.36 39.6926485,0.36 L34.619447,0.36 L34.619447,11.523871 L40.7019766,11.523871 C41.950356,11.523871 42.9862454,12.5535484 42.9862454,13.8270968 C42.9862454,15.1006452 41.950356,16.1032258 40.7019766,16.1032258 L39.4270359,16.1032258 Z M37.9130438,7.86580645 L37.9130438,3.53032258 L39.5332809,3.53032258 C40.5691703,3.53032258 41.6847434,4.34322581 41.6847434,5.67096774 C41.6847434,6.99870968 40.5691703,7.86580645 39.5332809,7.86580645 L37.9130438,7.86580645 Z M61.5525696,0.36 L49.148459,0.36 L49.148459,4.15354839 L61.5525696,4.15354839 L61.5525696,0.36 Z M49.148459,11.4696774 L59.4276685,11.4696774 L59.4276685,7.67612903 L49.148459,7.67612903 L49.148459,11.4696774 Z M49.148459,19.3548387 L61.4728858,19.3548387 L61.4728858,15.5612903 L49.148459,15.5612903 L49.148459,19.3548387 Z M87.7154158,2.1483871 C86.0686174,0.847741935 83.9968387,0.0619354839 81.7656925,0.0619354839 C76.4534395,0.0619354839 72.1239534,4.47870968 72.1239534,9.89806452 C72.1239534,15.3174194 76.4534395,19.7341935 81.7656925,19.7341935 C84.1030838,19.7341935 86.2545462,18.8670968 87.9279059,17.4580645 L85.5373921,14.6670968 C82.0313051,17.3767742 76.2675107,15.236129 76.2675107,9.89806452 C76.2675107,4.80387097 81.71257,2.58193548 85.324902,4.96645161 L87.7154158,2.1483871 Z M103.360001,0.36 L90.9558903,0.36 L90.9558903,19.3548387 L103.280317,19.3548387 L103.280317,15.5612903 L94.6744673,15.5612903 L94.6744673,11.4425806 L101.846009,11.4425806 L101.846009,7.64903226 L94.6744673,7.64903226 L94.6744673,4.15354839 L103.360001,4.15354839 L103.360001,0.36 Z M120.571701,19.3548387 L110.106562,8.27225806 L110.106562,19.3548387 L106.387985,19.3548387 L106.387985,0.36 L107.556681,0.36 L117.83589,10.9819355 L117.83589,0.36 L121.554467,0.36 L121.554467,19.3548387 L120.571701,19.3548387 Z M124.184033,0.36 L124.184033,4.15354839 L129.36348,4.15354839 L129.36348,19.3548387 L133.082057,19.3548387 L133.082057,4.15354839 L138.234942,4.15354839 L138.234942,0.36 L124.184033,0.36 Z M140.598895,0.332903226 L140.598895,19.3277419 L144.317472,19.3277419 L144.317472,7.62193548 L146.17676,11.7135484 L146.17676,11.7406452 L149.656286,19.3548387 L153.613914,19.3548387 L149.73597,11.2258065 C152.0468,10.8193548 153.507669,8.35354839 153.507669,6.05032258 C153.507669,2.90709677 151.01091,0.332903226 147.929804,0.332903226 L140.598895,0.332903226 Z M146.336128,4.12645161 L147.929804,4.12645161 C148.965693,4.12645161 149.789092,4.99354839 149.789092,6.05032258 C149.789092,7.02580645 149.071938,7.8116129 148.168855,7.92 L146.336128,4.12645161 Z M165.221187,0.36 L164.132175,0.36 L155.154468,18.3522581 L155.154468,19.3548387 L173.561424,19.3548387 L173.561424,18.3522581 L165.221187,0.36 Z M160.705772,15.5612903 L164.583717,7.8116129 L168.142926,15.5612903 L160.705772,15.5612903 Z M179.165852,0.36 L175.447274,0.36 L175.447274,19.3277419 L186.098342,19.3277419 L186.098342,15.5612903 L179.165852,15.5612903 L179.165852,0.36 Z" id="path-1"></path>
        <filter x="-50%" y="-50%" width="200%" height="200%" filterUnits="objectBoundingBox" id="filter-2">
            <feGaussianBlur stdDeviation="10" in="SourceGraphic"></feGaussianBlur>
        </filter>
        <filter x="-50%" y="-50%" width="200%" height="200%" filterUnits="objectBoundingBox" id="filter-3">
            <feMorphology radius="0.5" operator="dilate" in="SourceAlpha" result="shadowSpreadOuter1"></feMorphology>
            <feOffset dx="0" dy="2" in="shadowSpreadOuter1" result="shadowOffsetOuter1"></feOffset>
            <feGaussianBlur stdDeviation="6" in="shadowOffsetOuter1" result="shadowBlurOuter1"></feGaussianBlur>
            <feComposite in="shadowBlurOuter1" in2="SourceAlpha" operator="out" result="shadowBlurOuter1"></feComposite>
            <feColorMatrix values="0 0 0 0 0.97254902   0 0 0 0 0.345098039   0 0 0 0 0.109803922  0 0 0 1 0" type="matrix" in="shadowBlurOuter1"></feColorMatrix>
        </filter>
        <filter x="-50%" y="-50%" width="200%" height="200%" filterUnits="objectBoundingBox" id="filter-4">
            <feGaussianBlur stdDeviation="0" in="SourceGraphic"></feGaussianBlur>
        </filter>
        <filter x="-50%" y="-50%" width="200%" height="200%" filterUnits="objectBoundingBox" id="filter-5">
            <feGaussianBlur stdDeviation="1" in="SourceGraphic"></feGaussianBlur>
        </filter>
    </defs>
    <g id="Page-1" stroke="none" stroke-width="1" fill="none" fill-rule="evenodd">
        <g id="Desktop-HD-Copy-5" transform="translate(-107.000000, 0.000000)">
            <g id="Group-2" transform="translate(135.000000, 24.000000)">
                <g id="CUBE-CENTRAL" filter="url(#filter-2)">
                    <use fill="black" fill-opacity="1" filter="url(#filter-3)" xlink:href="#path-1"></use>
                    <use fill="#FFFFFF" fill-rule="evenodd" xlink:href="#path-1"></use>
                </g>
                <path d="M16.0531225,2.1483871 C14.4063241,0.847741935 12.3345455,0.0619354839 10.1033992,0.0619354839 C4.79114625,0.0619354839 0.461660079,4.47870968 0.461660079,9.89806452 C0.461660079,15.3174194 4.79114625,19.7341935 10.1033992,19.7341935 C12.4407905,19.7341935 14.592253,18.8670968 16.2656126,17.4580645 L13.8750988,14.6670968 C10.3690119,17.3767742 4.60521739,15.236129 4.60521739,9.89806452 C4.60521739,4.80387097 10.0502767,2.58193548 13.6626087,4.96645161 L16.0531225,2.1483871 Z M32.228933,12.3367742 L32.228933,0.36 L28.5103559,0.36 L28.5103559,12.363871 L28.5369172,12.363871 C28.5103559,13.3122581 28.1650594,14.1793548 27.5010278,14.8567742 C26.8369962,15.5341935 25.9870357,15.8864516 25.0573915,15.8864516 C24.1277472,15.8864516 23.2512255,15.5341935 22.5871938,14.8567742 C21.9231622,14.1793548 21.5513045,13.2851613 21.5513045,12.3367742 L21.5513045,0.36 L17.8327274,0.36 L17.8327274,12.363871 C17.8592887,16.4012903 21.0732017,19.68 25.0573915,19.68 C29.0150199,19.68 32.2554942,16.4012903 32.2554942,12.3367742 L32.228933,12.3367742 Z M39.4270359,16.1032258 L39.4270359,19.3277419 L40.7550991,19.3277419 C43.8627671,19.3277419 46.3860873,16.7806452 46.3860873,13.5832258 C46.3860873,11.7406452 45.5361268,10.0877419 44.1815023,9.03096774 C44.7924114,8.13677419 45.1377078,7.08 45.1377078,5.91483871 C45.1377078,2.85290323 42.6940715,0.36 39.6926485,0.36 L34.619447,0.36 L34.619447,11.523871 L40.7019766,11.523871 C41.950356,11.523871 42.9862454,12.5535484 42.9862454,13.8270968 C42.9862454,15.1006452 41.950356,16.1032258 40.7019766,16.1032258 L39.4270359,16.1032258 Z M37.9130438,7.86580645 L37.9130438,3.53032258 L39.5332809,3.53032258 C40.5691703,3.53032258 41.6847434,4.34322581 41.6847434,5.67096774 C41.6847434,6.99870968 40.5691703,7.86580645 39.5332809,7.86580645 L37.9130438,7.86580645 Z M61.5525696,0.36 L49.148459,0.36 L49.148459,4.15354839 L61.5525696,4.15354839 L61.5525696,0.36 Z M49.148459,11.4696774 L59.4276685,11.4696774 L59.4276685,7.67612903 L49.148459,7.67612903 L49.148459,11.4696774 Z M49.148459,19.3548387 L61.4728858,19.3548387 L61.4728858,15.5612903 L49.148459,15.5612903 L49.148459,19.3548387 Z M87.7154158,2.1483871 C86.0686174,0.847741935 83.9968387,0.0619354839 81.7656925,0.0619354839 C76.4534395,0.0619354839 72.1239534,4.47870968 72.1239534,9.89806452 C72.1239534,15.3174194 76.4534395,19.7341935 81.7656925,19.7341935 C84.1030838,19.7341935 86.2545462,18.8670968 87.9279059,17.4580645 L85.5373921,14.6670968 C82.0313051,17.3767742 76.2675107,15.236129 76.2675107,9.89806452 C76.2675107,4.80387097 81.71257,2.58193548 85.324902,4.96645161 L87.7154158,2.1483871 Z M103.360001,0.36 L90.9558903,0.36 L90.9558903,19.3548387 L103.280317,19.3548387 L103.280317,15.5612903 L94.6744673,15.5612903 L94.6744673,11.4425806 L101.846009,11.4425806 L101.846009,7.64903226 L94.6744673,7.64903226 L94.6744673,4.15354839 L103.360001,4.15354839 L103.360001,0.36 Z M120.571701,19.3548387 L110.106562,8.27225806 L110.106562,19.3548387 L106.387985,19.3548387 L106.387985,0.36 L107.556681,0.36 L117.83589,10.9819355 L117.83589,0.36 L121.554467,0.36 L121.554467,19.3548387 L120.571701,19.3548387 Z M124.184033,0.36 L124.184033,4.15354839 L129.36348,4.15354839 L129.36348,19.3548387 L133.082057,19.3548387 L133.082057,4.15354839 L138.234942,4.15354839 L138.234942,0.36 L124.184033,0.36 Z M140.598895,0.332903226 L140.598895,19.3277419 L144.317472,19.3277419 L144.317472,7.62193548 L146.17676,11.7135484 L146.17676,11.7406452 L149.656286,19.3548387 L153.613914,19.3548387 L149.73597,11.2258065 C152.0468,10.8193548 153.507669,8.35354839 153.507669,6.05032258 C153.507669,2.90709677 151.01091,0.332903226 147.929804,0.332903226 L140.598895,0.332903226 Z M146.336128,4.12645161 L147.929804,4.12645161 C148.965693,4.12645161 149.789092,4.99354839 149.789092,6.05032258 C149.789092,7.02580645 149.071938,7.8116129 148.168855,7.92 L146.336128,4.12645161 Z M165.221187,0.36 L164.132175,0.36 L155.154468,18.3522581 L155.154468,19.3548387 L173.561424,19.3548387 L173.561424,18.3522581 L165.221187,0.36 Z M160.705772,15.5612903 L164.583717,7.8116129 L168.142926,15.5612903 L160.705772,15.5612903 Z M179.165852,0.36 L175.447274,0.36 L175.447274,19.3277419 L186.098342,19.3277419 L186.098342,15.5612903 L179.165852,15.5612903 L179.165852,0.36 Z" id="CUBE-CENTRAL" stroke="#FFFFFF" fill="#FFFFFF" filter="url(#filter-4)"></path>
                <path d="M16.0531225,2.1483871 C14.4063241,0.847741935 12.3345455,0.0619354839 10.1033992,0.0619354839 C4.79114625,0.0619354839 0.461660079,4.47870968 0.461660079,9.89806452 C0.461660079,15.3174194 4.79114625,19.7341935 10.1033992,19.7341935 C12.4407905,19.7341935 14.592253,18.8670968 16.2656126,17.4580645 L13.8750988,14.6670968 C10.3690119,17.3767742 4.60521739,15.236129 4.60521739,9.89806452 C4.60521739,4.80387097 10.0502767,2.58193548 13.6626087,4.96645161 L16.0531225,2.1483871 Z M32.228933,12.3367742 L32.228933,0.36 L28.5103559,0.36 L28.5103559,12.363871 L28.5369172,12.363871 C28.5103559,13.3122581 28.1650594,14.1793548 27.5010278,14.8567742 C26.8369962,15.5341935 25.9870357,15.8864516 25.0573915,15.8864516 C24.1277472,15.8864516 23.2512255,15.5341935 22.5871938,14.8567742 C21.9231622,14.1793548 21.5513045,13.2851613 21.5513045,12.3367742 L21.5513045,0.36 L17.8327274,0.36 L17.8327274,12.363871 C17.8592887,16.4012903 21.0732017,19.68 25.0573915,19.68 C29.0150199,19.68 32.2554942,16.4012903 32.2554942,12.3367742 L32.228933,12.3367742 Z M39.4270359,16.1032258 L39.4270359,19.3277419 L40.7550991,19.3277419 C43.8627671,19.3277419 46.3860873,16.7806452 46.3860873,13.5832258 C46.3860873,11.7406452 45.5361268,10.0877419 44.1815023,9.03096774 C44.7924114,8.13677419 45.1377078,7.08 45.1377078,5.91483871 C45.1377078,2.85290323 42.6940715,0.36 39.6926485,0.36 L34.619447,0.36 L34.619447,11.523871 L40.7019766,11.523871 C41.950356,11.523871 42.9862454,12.5535484 42.9862454,13.8270968 C42.9862454,15.1006452 41.950356,16.1032258 40.7019766,16.1032258 L39.4270359,16.1032258 Z M37.9130438,7.86580645 L37.9130438,3.53032258 L39.5332809,3.53032258 C40.5691703,3.53032258 41.6847434,4.34322581 41.6847434,5.67096774 C41.6847434,6.99870968 40.5691703,7.86580645 39.5332809,7.86580645 L37.9130438,7.86580645 Z M61.5525696,0.36 L49.148459,0.36 L49.148459,4.15354839 L61.5525696,4.15354839 L61.5525696,0.36 Z M49.148459,11.4696774 L59.4276685,11.4696774 L59.4276685,7.67612903 L49.148459,7.67612903 L49.148459,11.4696774 Z M49.148459,19.3548387 L61.4728858,19.3548387 L61.4728858,15.5612903 L49.148459,15.5612903 L49.148459,19.3548387 Z M87.7154158,2.1483871 C86.0686174,0.847741935 83.9968387,0.0619354839 81.7656925,0.0619354839 C76.4534395,0.0619354839 72.1239534,4.47870968 72.1239534,9.89806452 C72.1239534,15.3174194 76.4534395,19.7341935 81.7656925,19.7341935 C84.1030838,19.7341935 86.2545462,18.8670968 87.9279059,17.4580645 L85.5373921,14.6670968 C82.0313051,17.3767742 76.2675107,15.236129 76.2675107,9.89806452 C76.2675107,4.80387097 81.71257,2.58193548 85.324902,4.96645161 L87.7154158,2.1483871 Z M103.360001,0.36 L90.9558903,0.36 L90.9558903,19.3548387 L103.280317,19.3548387 L103.280317,15.5612903 L94.6744673,15.5612903 L94.6744673,11.4425806 L101.846009,11.4425806 L101.846009,7.64903226 L94.6744673,7.64903226 L94.6744673,4.15354839 L103.360001,4.15354839 L103.360001,0.36 Z M120.571701,19.3548387 L110.106562,8.27225806 L110.106562,19.3548387 L106.387985,19.3548387 L106.387985,0.36 L107.556681,0.36 L117.83589,10.9819355 L117.83589,0.36 L121.554467,0.36 L121.554467,19.3548387 L120.571701,19.3548387 Z M124.184033,0.36 L124.184033,4.15354839 L129.36348,4.15354839 L129.36348,19.3548387 L133.082057,19.3548387 L133.082057,4.15354839 L138.234942,4.15354839 L138.234942,0.36 L124.184033,0.36 Z M140.598895,0.332903226 L140.598895,19.3277419 L144.317472,19.3277419 L144.317472,7.62193548 L146.17676,11.7135484 L146.17676,11.7406452 L149.656286,19.3548387 L153.613914,19.3548387 L149.73597,11.2258065 C152.0468,10.8193548 153.507669,8.35354839 153.507669,6.05032258 C153.507669,2.90709677 151.01091,0.332903226 147.929804,0.332903226 L140.598895,0.332903226 Z M146.336128,4.12645161 L147.929804,4.12645161 C148.965693,4.12645161 149.789092,4.99354839 149.789092,6.05032258 C149.789092,7.02580645 149.071938,7.8116129 148.168855,7.92 L146.336128,4.12645161 Z M165.221187,0.36 L164.132175,0.36 L155.154468,18.3522581 L155.154468,19.3548387 L173.561424,19.3548387 L173.561424,18.3522581 L165.221187,0.36 Z M160.705772,15.5612903 L164.583717,7.8116129 L168.142926,15.5612903 L160.705772,15.5612903 Z M179.165852,0.36 L175.447274,0.36 L175.447274,19.3277419 L186.098342,19.3277419 L186.098342,15.5612903 L179.165852,15.5612903 L179.165852,0.36 Z" id="CUBE-CENTRAL" stroke="#E9E9E9" stroke-width="2" fill="#FFFFFF" filter="url(#filter-5)"></path>
            </g>
        </g>
    </g>
</svg>